<?xml version="1.0" standalone="no"?>
<!DOCTYPE svg PUBLIC "-//W3C//DTD SVG 20010904//EN"
 "http://www.w3.org/TR/2001/REC-SVG-20010904/DTD/svg10.dtd">
<svg version="1.0" xmlns="http://www.w3.org/2000/svg"
 width="320.000000pt" height="320.000000pt" viewBox="0 0 320.000000 320.000000"
 preserveAspectRatio="xMidYMid meet">
<metadata>
Created by potrace 1.14, written by Peter Selinger 2001-2017
</metadata>
<g transform="translate(0.000000,320.000000) scale(0.100000,-0.100000)"
fill="#000000" stroke="none">
<path d="M546 2694 c-309 -69 -506 -305 -506 -606 0 -83 1 -88 22 -92 35 -7
153 -15 247 -17 l85 -2 12 61 c24 119 76 200 149 233 51 24 170 25 223 3 75
-31 119 -96 108 -158 -10 -52 -37 -78 -133 -132 -48 -27 -115 -75 -148 -106
-114 -106 -148 -207 -149 -438 0 -80 4 -171 8 -202 l7 -58 160 0 c87 0 159 2
159 4 0 18 45 216 62 273 33 113 62 140 245 229 179 88 245 144 294 248 89
191 44 400 -121 567 -87 87 -169 134 -305 174 -116 34 -312 43 -419 19z m369
-98 c325 -88 503 -377 384 -623 -38 -78 -93 -123 -241 -196 -152 -75 -216
-127 -249 -202 -23 -52 -49 -214 -49 -309 0 -53 -3 -67 -13 -63 -8 3 -64 8
-125 12 l-112 8 0 142 c0 159 16 265 51 341 32 68 119 151 214 203 107 58 142
85 164 130 42 81 36 154 -18 228 -74 102 -282 139 -410 73 -78 -40 -140 -130
-164 -238 l-13 -57 -70 -6 c-38 -4 -99 -7 -135 -8 l-66 -1 13 77 c46 263 183
425 419 495 77 23 327 19 420 -6z"/>
<path d="M1570 1857 c-49 -24 -61 -69 -58 -202 4 -134 15 -165 70 -184 35 -12
99 -14 147 -5 l32 7 -6 76 c-9 106 -12 113 -43 109 -26 -3 -27 -6 -30 -65 l-3
-63 -35 0 c-28 0 -36 5 -45 28 -14 37 -8 217 9 234 6 6 36 12 65 13 49 0 52 2
55 26 2 20 -2 28 -20 33 -38 10 -111 6 -138 -7z"/>
<path d="M1790 1713 c0 -173 11 -216 60 -240 57 -29 135 -7 160 44 16 32 26
238 15 308 -6 41 -9 45 -34 45 l-29 0 -4 -154 c-4 -168 -11 -189 -57 -184 -23
3 -27 9 -33 53 -3 28 -7 96 -7 152 -1 122 -5 133 -42 133 l-29 0 0 -157z"/>
<path d="M2364 1861 c-50 -21 -69 -97 -40 -150 8 -14 40 -43 72 -66 53 -36 59
-45 59 -75 0 -29 -4 -36 -24 -38 -13 -2 -41 4 -63 14 -36 16 -40 16 -55 1 -15
-15 -15 -18 3 -38 41 -46 120 -62 174 -34 38 20 51 45 52 105 2 59 -12 77 -92
124 -50 29 -55 36 -55 67 l0 34 56 -2 c49 -3 57 0 62 17 3 10 -2 25 -10 31
-18 16 -111 22 -139 10z"/>
<path d="M2623 1858 c-24 -11 -53 -64 -53 -96 0 -32 43 -85 98 -121 55 -36 74
-70 52 -96 -17 -20 -55 -19 -91 2 -27 16 -30 16 -45 1 -38 -37 21 -82 107 -83
75 0 108 28 116 99 7 61 -9 91 -67 123 -116 67 -123 126 -14 121 43 -3 49 0
52 18 5 38 -98 59 -155 32z"/>
<path d="M2070 1665 l0 -195 105 0 105 0 0 30 0 30 -70 0 -70 0 0 55 0 54 58
3 c56 3 57 3 57 33 0 30 -1 30 -57 33 l-58 3 0 44 0 45 64 0 c56 0 66 3 71 20
11 35 -3 40 -106 40 l-99 0 0 -195z"/>
<path d="M1885 1288 c-3 -8 -4 -99 -3 -203 l3 -190 33 -3 32 -3 0 128 0 128
20 -32 c26 -43 54 -43 80 -1 l19 32 3 -124 3 -125 33 -3 32 -3 0 190 c0 104
-3 196 -6 205 -4 9 -18 16 -34 16 -26 0 -31 -7 -56 -70 -15 -38 -30 -70 -33
-70 -3 0 -18 30 -32 68 -24 61 -29 67 -58 70 -19 2 -33 -2 -36 -10z"/>
<path d="M2170 1291 c0 -5 25 -52 55 -106 l55 -97 0 -88 c0 -92 10 -115 47
-108 16 3 19 17 23 108 5 101 7 108 53 198 38 73 44 94 33 98 -32 12 -52 -3
-86 -68 l-35 -67 -29 52 c-16 29 -36 60 -44 70 -15 17 -72 24 -72 8z"/>
<path d="M590 1081 c-57 -18 -93 -45 -121 -89 -39 -62 -23 -77 30 -29 122 110
301 43 301 -113 0 -69 -42 -126 -109 -149 -108 -36 -202 18 -232 132 -16 58
-29 61 -29 7 0 -115 88 -200 209 -202 31 0 73 4 92 11 43 14 103 74 124 123
31 75 9 185 -48 246 -48 52 -156 83 -217 63z"/>
<path d="M1357 723 c-4 -3 -7 -93 -7 -199 0 -205 0 -204 51 -204 18 0 19 8 19
118 l0 117 58 -115 c50 -101 60 -115 82 -115 25 0 25 1 28 95 1 52 -1 142 -5
200 l-8 105 -30 0 -30 0 -5 -104 -5 -103 -39 93 c-22 52 -43 100 -49 107 -10
13 -49 17 -60 5z"/>
<path d="M1627 724 c-10 -10 -8 -262 3 -308 12 -52 47 -86 96 -93 49 -6 88 9
109 41 24 37 36 148 27 261 l-7 100 -30 0 -30 0 -5 -155 c-3 -85 -9 -161 -13
-167 -5 -7 -21 -13 -36 -13 -36 0 -40 15 -42 135 0 50 -4 115 -7 145 -6 49
-10 55 -32 58 -14 2 -29 0 -33 -4z"/>
<path d="M1907 724 c-4 -4 -7 -94 -7 -200 0 -205 0 -204 51 -204 18 0 19 9 19
123 l1 122 20 -27 c12 -16 30 -28 43 -28 13 0 28 11 38 28 17 26 17 24 18 -90
0 -117 0 -118 25 -124 52 -13 55 -5 54 128 -1 68 -4 157 -8 198 -6 69 -8 75
-30 78 -31 5 -41 -6 -72 -84 l-26 -66 -29 73 c-26 67 -32 74 -59 77 -17 2 -34
0 -38 -4z"/>
<path d="M2218 724 c-5 -4 -8 -94 -8 -199 l0 -192 31 -7 c82 -16 155 0 194 43
23 26 27 119 7 144 -10 12 -11 25 -2 56 14 54 4 104 -27 133 -21 19 -37 24
-106 26 -45 2 -85 0 -89 -4z m142 -80 c6 -14 10 -30 10 -35 0 -18 -41 -49 -65
-49 -23 0 -25 3 -25 48 0 57 4 62 42 62 21 0 31 -6 38 -26z m16 -180 c4 -14 2
-36 -5 -50 -9 -20 -18 -24 -51 -24 l-40 0 0 50 0 50 45 0 c40 0 45 -3 51 -26z"/>
<path d="M2743 723 c-10 -3 -13 -51 -13 -192 0 -198 3 -211 47 -211 22 0 23 3
23 80 0 71 2 80 19 80 13 0 27 -20 51 -75 25 -57 39 -77 56 -81 53 -13 55 0
18 85 l-34 80 20 33 c14 23 20 51 20 91 0 51 -4 62 -29 88 -27 27 -35 29 -98
28 -37 0 -74 -3 -80 -6z m127 -72 c25 -48 1 -101 -46 -101 -22 0 -24 4 -24 53
0 30 3 57 7 60 13 14 53 6 63 -12z"/>
<path d="M2490 525 l0 -195 104 0 c98 0 105 1 111 21 10 31 -3 38 -75 41 l-65
3 -3 52 -3 52 57 3 c60 3 83 20 71 52 -5 12 -20 16 -67 16 l-60 0 0 45 0 44
68 3 c65 3 67 4 70 31 l3 27 -105 0 -106 0 0 -195z"/>
</g>
</svg>
